<?xml version="1.0" encoding="utf-8"?>
<!-- Generator: Adobe Illustrator 21.1.0, SVG Export Plug-In . SVG Version: 6.00 Build 0)  -->
<svg version="1.1" id="Layer_1" xmlns="http://www.w3.org/2000/svg" xmlns:xlink="http://www.w3.org/1999/xlink" x="0px" y="0px"
	 viewBox="0 0 289.8 91.1" style="enable-background:new 0 0 289.8 91.1;" xml:space="preserve">
<style type="text/css">
	.st0{fill:#009EDB;}
</style>
<path d="M158,87.1h6.9V51.8H158V87.1z M148.7,87.1V51.8h-6.9v29.8h-5.8c-0.1,0-0.2,0.1-0.2,0.2v5.2c0,0.1,0.1,0.2,0.2,0.2
	c0,0,0,0,0,0L148.7,87.1z M116.7,71c1.3-0.8,2.8-1.3,4.3-1.3c1.2,0,2.4,0.5,3.2,1.5c0.9,1.1,1.3,2.5,1.2,3.9c0,1.7-0.7,3.4-1.9,4.6
	c-1.2,1.3-3,1.9-4.7,1.9H117c-0.6-1.8-1-3.6-1-5.5C116,74.4,116.2,72.6,116.7,71 M105.5,81.5c-0.2,0-0.2,0.1-0.2,0.2v5.2
	c0,0.2,0.1,0.2,0.2,0.2h14.1c1.6,0,3.2-0.3,4.7-0.8c1.5-0.5,2.9-1.3,4.1-2.3c0.9,1.1,2.1,1.9,3.4,2.4c1.4,0.5,2.8,0.7,4.3,0.7h0.2
	c0.1,0,0.2-0.1,0.2-0.2c0,0,0,0,0,0v-5.2c0-0.1-0.1-0.2-0.2-0.2h-0.2c-0.9,0-1.8-0.1-2.7-0.4c-0.7-0.3-1.4-0.7-1.9-1.3
	c0.6-1.5,0.9-3.2,0.9-4.8c0.1-2-0.4-4-1.4-5.8c-0.9-1.6-2.3-3-4-3.8c-1.8-0.9-3.8-1.4-5.8-1.4c-1.5,0-3,0.3-4.4,0.7
	c-1.7,0.5-3.3,1.1-4.8,2c-0.7,1.3-1.3,2.6-1.7,4c-0.4,1.4-0.7,2.9-0.7,4.4c0,2.2,0.4,4.4,1.2,6.4L105.5,81.5z M101.3,59.2
	c0.6-0.7,0.9-1.5,0.8-2.4c0.1-0.9-0.2-1.8-0.8-2.5c-0.6-0.6-1.4-0.9-2.3-0.9c-0.9,0-1.7,0.3-2.3,0.9c-0.6,0.7-0.9,1.6-0.8,2.5
	c-0.1,0.9,0.3,1.8,0.8,2.4C98.1,60.4,100.1,60.4,101.3,59.2 M93.4,59.2c0.6-0.7,0.9-1.6,0.8-2.5c0.1-0.9-0.2-1.8-0.8-2.5
	c-0.6-0.6-1.4-0.9-2.2-0.9c-0.9,0-1.7,0.3-2.3,0.9c-0.6,0.7-0.9,1.6-0.8,2.5c-0.1,0.9,0.3,1.8,0.8,2.4
	C90.2,60.3,92.2,60.3,93.4,59.2 M106,87.1c0.1,0,0.2-0.1,0.2-0.2c0,0,0,0,0,0v-5.2c0-0.1-0.1-0.2-0.2-0.2h-7V64.1h-6.9v17.5h-7.2
	c-0.2,0-0.2,0.1-0.2,0.2v5.2c0,0.1,0.1,0.2,0.2,0.2c0,0,0,0,0,0L106,87.1z M85.3,87.1c0.2,0,0.2-0.1,0.2-0.2v-5.2
	c0-0.1-0.1-0.2-0.2-0.2h-3c-1.4-1.3-2.5-4.3-3.2-8.9c-0.5-3.2-1.7-5.5-3.4-6.9c-1.7-1.4-4.2-2.1-7.2-2.1c-3.4-0.1-6.7,0.7-9.7,2.2
	l2.1,5.2c1-0.6,2-1,3.1-1.3c1-0.3,2.1-0.4,3.1-0.4c1.4-0.1,2.7,0.4,3.7,1.3c1,1.3,1.7,2.8,1.9,4.4c0.7,3.3,1.6,5.5,2.8,6.7H56.6
	c-0.2,0-0.2,0.1-0.2,0.2v5.2c0,0.1,0.1,0.2,0.2,0.2c0,0,0,0,0,0L85.3,87.1z M28.4,87.1h28.7c0.1,0,0.2-0.1,0.2-0.2c0,0,0,0,0,0v-5.2
	c0-0.1-0.1-0.2-0.2-0.2H51c-0.8-4.9-2.7-9.5-5.5-13.6c-2.5-3.4-5.9-6.1-9.9-7.6L33,66.8c1.9,0.8,3.6,1.8,5.2,3.2
	c1.4,1.3,2.6,2.9,3.5,4.6c1.1,2.2,1.9,4.6,2.3,7H28.4L28.4,87.1z M17.2,59.2c0.6-0.7,0.9-1.5,0.9-2.4c0-0.9-0.2-1.8-0.8-2.5
	c-0.6-0.6-1.4-0.9-2.2-0.9c-0.9,0-1.7,0.3-2.3,0.9c-0.6,0.7-0.9,1.6-0.8,2.5c-0.1,0.9,0.3,1.8,0.8,2.4c0.6,0.6,1.4,0.9,2.3,0.9
	C15.8,60.1,16.6,59.8,17.2,59.2 M9.3,59.2c0.6-0.7,0.9-1.6,0.9-2.5c0.1-0.9-0.2-1.8-0.8-2.5c-0.6-0.6-1.4-0.9-2.2-0.9
	c-0.9,0-1.7,0.3-2.3,0.9c-0.6,0.7-0.9,1.6-0.8,2.5c-0.1,0.9,0.3,1.8,0.8,2.4c0.6,0.6,1.4,0.9,2.3,0.9C7.9,60.1,8.7,59.8,9.3,59.2
	 M7.9,80.6c-0.9-1.1-1.3-2.6-1.2-4c-0.1-1.9,0.4-3.7,1.4-5.3c0.7-1.3,2-2.1,3.4-2.2c1.5,0.1,2.8,0.9,3.4,2.2c1,1.6,1.5,3.4,1.4,5.2
	c0.1,1.4-0.3,2.9-1.2,4c-1,0.9-2.3,1.4-3.6,1.3C10.2,82,8.9,81.6,7.9,80.6 M20.4,85c2-1.7,3-4.4,3-8.1c0-2.3-0.5-4.7-1.6-6.7
	c-1-2-2.4-3.6-4.2-4.8c-1.7-1.1-3.7-1.7-5.8-1.7c-2.2,0-4.3,0.6-6.1,1.7c-1.8,1.2-3.2,2.9-4.1,4.8c-1,2.1-1.5,4.4-1.5,6.7
	c0,3.5,1,6.2,3,8s4.8,2.7,8.6,2.7S18.4,86.7,20.4,85 M158,42h6.9V6.6H158V42z M122.7,10.2c0.3-0.1,1.8-0.3,4.3-0.6l5.5-0.6V6.3
	c-0.9,0.1-2.2,0.2-3.8,0.5l-0.8,0.1c-0.4-0.2-0.7-0.5-1-0.8c-0.3-0.4-0.4-0.8-0.4-1.3c0-0.6,0.2-1.2,0.6-1.6c0.4-0.4,1-0.6,1.6-0.6
	c0.9,0,1.7,0.2,2.5,0.6l0.9-2.4c-1.2-0.6-2.5-0.9-3.8-0.8c-1.3-0.1-2.7,0.3-3.7,1.1c-0.9,0.8-1.4,1.9-1.4,3.1c0,0.7,0.2,1.3,0.6,1.9
	c0.4,0.5,0.9,1,1.5,1.3l-2.7,0.4L122.7,10.2z M122.2,42h17.1c2.7,0.1,5.4-0.9,7.2-2.8c1.8-2.1,2.8-4.8,2.6-7.6V6.6h-6.9V31
	c0.1,1.5-0.3,2.9-1.1,4.1c-0.9,0.9-2.1,1.4-3.4,1.3h-0.3l-5.5-23.5h-7.2l6,23.5h-8.4L122.2,42z M101.8,25.8c1.3-0.8,2.8-1.3,4.3-1.3
	c1.2,0,2.4,0.5,3.2,1.5c0.9,1.1,1.3,2.6,1.2,4c0,1.7-0.7,3.4-1.9,4.6c-1.2,1.2-2.9,1.9-4.7,1.8h-1.8c-0.6-1.7-1-3.6-1.1-5.4
	C101.1,29.3,101.4,27.5,101.8,25.8 M90.7,36.4c-0.2,0-0.2,0.1-0.2,0.2v5.2c0,0.2,0.1,0.2,0.2,0.2h14.1c2.3,0,4.5-0.5,6.5-1.5
	c1.9-1,3.5-2.4,4.6-4.2c1.1-1.9,1.7-4,1.6-6.2c0-2-0.4-4-1.4-5.8c-0.9-1.6-2.3-3-4-3.9c-1.8-0.9-3.8-1.4-5.8-1.4
	c-1.5,0-3,0.3-4.4,0.7c-1.7,0.5-3.3,1.1-4.8,2c-0.7,1.3-1.3,2.6-1.7,4c-0.4,1.4-0.7,2.9-0.7,4.3c0,2.2,0.4,4.4,1.3,6.4L90.7,36.4z
	 M71.4,25.8c1.3-0.8,2.8-1.3,4.3-1.3c1.2,0,2.4,0.5,3.2,1.5c0.9,1.1,1.3,2.6,1.2,4c0,1.7-0.7,3.4-1.9,4.6c-1.2,1.2-2.9,1.9-4.7,1.9
	h-1.8c-0.7-1.7-1-3.6-1.1-5.5C70.7,29.3,70.9,27.5,71.4,25.8 M91.2,42c0.1,0,0.2-0.1,0.2-0.2c0,0,0,0,0,0v-5.2
	c0-0.1-0.1-0.2-0.2-0.2h-0.2c-0.9,0-1.9-0.1-2.8-0.4c-0.7-0.3-1.4-0.7-1.9-1.3c0.6-1.5,0.9-3.1,0.9-4.7c0-2-0.5-4-1.4-5.8
	c-0.9-1.6-2.3-3-4-3.9c-1.8-0.9-3.8-1.4-5.8-1.4c-1.5,0-3.1,0.3-4.6,0.7c-1.6,0.4-3.2,1.1-4.6,1.9c-0.7,1.3-1.3,2.6-1.7,4
	c-0.4,1.4-0.7,2.9-0.7,4.4c0,2.2,0.4,4.4,1.2,6.5c-1.7,0-3.3,0.8-4.5,2c-1.1,1.4-1.7,3.1-1.6,4.8V57h6.9V45.6c-0.1-1,0.2-2,0.8-2.8
	c0.8-0.6,1.9-0.9,2.9-0.8h4.3c1.6,0,3.2-0.3,4.8-0.8c1.5-0.5,2.9-1.3,4.1-2.3c1,1,2.1,1.9,3.4,2.4c1.4,0.5,2.8,0.7,4.3,0.7L91.2,42z
	"/>
<g>
	<g>
		<g>
			<g>
				<path class="st0" d="M267.3,83.1c-2.9,1.4-6.1,1.8-9.2,1.1c-2.1-0.5-4.2-1.2-6.2-2.2l-4.4-1.8c-3.8-1.2-7.9-1.3-11.7-0.3h-0.4
					c-3.8-1.1-7.9-1-11.7,0.3c-1.5,0.5-2.9,1.2-4.4,1.8c-2,0.9-4.1,1.7-6.2,2.2c-3.1,0.7-6.3,0.3-9.2-1.1l-0.4-0.2
					c-0.1,0-0.1,0-0.1,0.1c1.9,1.9,4.3,3.3,6.9,4.1c1.8,0.5,3.6,0.6,5.5,0.4c2.8-0.4,5.4-1.4,7.7-3l4.2-2.8c1.5-1,3.4-1.4,5.3-1
					c1,0.1,0.2,0.6,0.1,0.7c-2.5,1.2-4.9,2.7-7.1,4.4c-1.5,1.1-4.2,3.7-4.2,3.7l2,1.7l2.2-2.4c2.7-2.8,5.7-5.2,9.1-7.1
					c0.3-0.2,0.6-0.2,0.9,0c3.4,1.9,6.5,4.3,9.1,7.1l2.2,2.4l2-1.7l-4.2-3.7c-2.2-1.7-4.6-3.2-7.1-4.4c-0.1-0.1-0.9-0.6,0.1-0.7
					c1.8-0.4,3.7,0,5.2,1l4.2,2.8c2.3,1.6,5,2.6,7.7,3c1.8,0.2,3.7,0.1,5.5-0.4c2.6-0.7,5-2.2,6.9-4.1c0,0-0.1-0.1-0.1-0.1
					L267.3,83.1 M277,74.5c-1.2,1-2.6,1.7-4.1,2.2c-2.1,0.6-4.3,1-6.5,1c-2.9,0.1-5.7,0.3-8.5,0.7c-0.2,0-0.3,0-0.2-0.1h0
					c2.5-1,4.5-2.9,5.6-5.4l2.8-5.6c0,0,0-0.1,0-0.1c-0.2,0.1-3,2.4-4.3,3.6l-4.6,4.5c-2.1,1.8-4.6,3.1-7.3,3.7c0,0-0.1,0-0.1,0
					c0,0,0,0.1-0.1,0.1h0.1l5.3,1.2c2.2,0.6,4.6,1.1,6.9,1.3c6,0.6,11.9-2.2,15.3-7.2C277.2,74.5,277.1,74.5,277,74.5 M285.7,61.2
					c-1.4,1.7-3.1,3.1-5,4.3c-1.6,1.1-3.3,2-5.1,2.8c-2.2,0.9-4.3,2.2-6.2,3.7l-0.4,0.3c-0.1,0-0.1,0-0.1-0.1s3-3.1,3.9-9.3
					c0.1-2.2,0.5-4.5,1-6.7c0-0.1,0-0.1,0-0.2c-2,2.6-3.6,5.5-4.7,8.6l-1.8,5c-0.7,2.3-2,4.4-3.6,6.1l-0.1,0.2c0,0,0,0.1,0,0.1
					l0.6-0.1l5.8-1.2c3.1-0.5,6.1-1.7,8.6-3.6c2.7-1.9,4.8-4.5,6.3-7.4c0.4-0.8,0.7-1.6,1-2.4C285.8,61.2,285.8,61.2,285.7,61.2
					 M289.5,46.3c-0.9,2.7-2.5,5.1-4.5,7.1c-2.4,2.3-4.6,4.8-6.6,7.5c0,0.1-0.2,0-0.1-0.1c0.8-2.7,1-5.6,0.6-8.4
					c-0.4-2.4-1.4-5-1.7-7.9c0-0.1-0.1-0.1-0.1-0.1c0,0.1-0.1,0.2-0.1,0.3c-0.6,1.9-1,3.8-1.2,5.8c-0.1,2.4,0.3,5.4,0.1,7.9
					c-0.2,2.8-0.4,5.6-1.7,8.2c0,0.1,0,0.1,0,0.2l5.9-3.7c2.5-1.6,4.6-3.6,6.3-6c2.1-3.1,3.3-6.7,3.3-10.4c0-0.1,0-0.2,0-0.4
					C289.7,46.2,289.5,46.3,289.5,46.3"/>
				<path class="st0" d="M283.2,47.9C283.2,47.9,283.2,47.9,283.2,47.9C283.2,48,283.1,47.9,283.2,47.9
					C283.1,47.9,283.1,47.9,283.2,47.9c0-0.8,0-1.6,0-2.4c-0.2-2.8-1.9-5.1-3.4-7.4c-1-1.5-1.9-3.1-2.7-4.8c0,0-0.1-0.1-0.2-0.1
					c0,0.2,0,1.1,0.1,1.6c0.5,4,1.6,7.9,3,11.7c0.9,2.4,1.2,4.9,1,7.4c0,0.2,0,0.2,0.1,0.3c0.9-1.3,2.6-3.1,3.7-4.4
					s7.1-8.1,4.2-17.5c-0.1-0.4-0.3-0.8-0.5-1.1c0,0-0.1,0.1-0.1,0.1c0,6.7-3.2,9.6-4.6,14.2L283.2,47.9 M283.2,34l-0.6-1.6
					l-0.4-0.8c-1-1.8-2.4-3.4-4.1-4.5c-1.4-1.2-2.6-2.5-3.6-4c0,0-0.1,0-0.1,0h-0.1c0.1,0.3,1,3.2,1.6,4.6c0.9,1.9,2.1,3.7,3.5,5.4
					l0.3,0.4c1.6,2.3,3,4.8,3.9,7.4c0,0.1,0.1,0.1,0.1,0.1l1.6-5.1c0.6-1.8,1.1-3.7,1.5-5.5c0.6-4.4-0.8-10.2-3.4-13.3
					c0,0-0.1,0.1-0.1,0.1c0,0.1,0.1,0.3,0.1,0.4l0.2,0.6c0.5,2.4,0.6,4.9,0.1,7.4c-0.4,1.9-0.5,3.9-0.5,5.9c0,0.3,0.2,2.8,0.2,2.9
					s-0.1,0-0.1,0 M275.3,9.1c0.8,0.8,1.5,1.7,1.9,2.8c0.7,1.7,0.9,4.2,1.4,6.1l0.9,3.3c0,0.1-0.1,0.2-0.1,0.1
					c-1.5-1.8-3.3-3.3-5.3-4.5c-1.4-0.8-2.5-1.9-3.5-3.1L270,13c-0.1,0-0.1,0-0.2,0v0.3c0.5,2.2,1.5,4.3,3.1,6
					c1.2,1.2,2.7,2.2,4,3.4c1.7,1.5,3.3,3.1,4.7,4.9c0,0,0.1,0.1,0.1,0l0-1.6l0.1-4.8v-1.6c0.1-1.6-0.2-3.3-0.9-4.8
					c-1-2.5-2.9-4.5-5.2-5.7c-0.1-0.1-0.3-0.1-0.5-0.2C275.2,9,275.2,9,275.3,9.1 M265.1,4.4c1.4,1.3,2.6,2.7,3.6,4.3
					c1,1.6,2.1,3,3.4,4.3c0.9,0.9,3.6,3,4.3,3.5c0,0,0,0,0.1,0c-0.1-0.8-1.4-6.4-4.9-9.2c-2-1.6-4.4-2.7-6.9-3.3v0.2L265.1,4.4
					 M209.5,81.7c2.3-0.2,4.6-0.6,6.9-1.3l5.4-1.2h0.1c0,0,0-0.1-0.1-0.1c0,0-0.1,0-0.1,0c-2.7-0.6-5.2-1.9-7.3-3.7l-4.6-4.5
					l-4.3-3.6c0,0,0,0.1,0,0.1c0.4,0.6,1.9,3.9,2.8,5.6c1.1,2.4,3.1,4.4,5.6,5.4c0.1,0.1,0,0.1-0.2,0.1h-0.1
					c-2.8-0.4-5.7-0.6-8.5-0.7c-2.2,0-4.4-0.4-6.5-1c-1.5-0.5-2.9-1.2-4.1-2.2c-0.1,0-0.1,0-0.2,0C197.5,79.5,203.4,82.3,209.5,81.7
					 M207.3,75.9l0.6,0.1c0,0,0-0.1,0-0.1l-0.2-0.2c-1.7-1.7-2.9-3.8-3.6-6.1l-1.7-5c-1.1-3.1-2.7-6-4.7-8.6c0,0.1,0,0.1,0,0.2
					c0.6,2.2,0.9,4.4,1.1,6.7c0.9,6.3,3.8,9.2,3.9,9.3s0,0.2-0.1,0.1L202,72c-1.9-1.5-4-2.7-6.3-3.7c-1.8-0.8-3.5-1.7-5.1-2.8
					c-1.9-1.2-3.6-2.6-5-4.3c-0.1,0-0.1,0-0.2,0c0.3,0.8,0.6,1.6,1,2.4c1.5,2.9,3.6,5.4,6.3,7.4c2.5,2,5.5,3.2,8.7,3.7
					C203.4,75,205.4,75.5,207.3,75.9 M191.2,63l5.9,3.7c0-0.1,0.1-0.1,0.1-0.2c-1.3-2.6-1.5-5.3-1.7-8.2c-0.2-2.4,0.2-5.5,0.1-7.9
					c-0.2-2-0.6-3.9-1.2-5.8c0-0.1-0.1-0.2-0.1-0.3c-0.1,0-0.1,0.1-0.1,0.1c-0.2,2.9-1.3,5.5-1.7,7.9c-0.4,2.8-0.2,5.7,0.6,8.4
					c0,0.1-0.1,0.2-0.1,0.1c-2-2.7-4.2-5.2-6.6-7.5c-2.1-2-3.6-4.4-4.5-7.1c0,0-0.1-0.1-0.1-0.1c0,0.1,0,0.2,0,0.4
					c0,3.7,1.1,7.4,3.3,10.4C186.7,59.4,188.8,61.4,191.2,63 M190.2,54.2c0.1-0.1,0.1-0.1,0.1-0.3c-0.2-2.5,0.1-5,1.1-7.4
					c1.4-3.8,2.4-7.7,3-11.7l0.1-1.6c0,0-0.1,0-0.1,0.1c-0.8,1.6-1.7,3.2-2.7,4.8c-1.5,2.3-3.2,4.6-3.4,7.4c-0.1,0.8,0,1.6,0.1,2.4
					c0,0,0,0.1-0.1,0.1c0,0,0,0-0.1-0.1l-0.6-2.4c-1.4-4.6-4.6-7.5-4.6-14.2c0,0-0.1-0.1-0.1-0.1c-0.2,0.4-0.3,0.8-0.4,1.2
					c-2.9,9.4,3,16.1,4.1,17.5S189.3,52.9,190.2,54.2 M186,35.7l1.6,5.1c0,0,0.1,0,0.1-0.1c0.9-2.6,2.3-5.1,3.9-7.4l0.3-0.4
					c1.4-1.6,2.6-3.5,3.6-5.4c0.6-1.4,1.5-4.4,1.6-4.6H197c-0.1,0-0.1,0-0.2,0c-1,1.5-2.2,2.8-3.6,4c-1.7,1.2-3.1,2.7-4.1,4.5
					l-0.4,0.8l-0.6,1.6c0,0-0.1,0.2-0.1,0s0.2-2.5,0.2-2.9c0-2-0.2-3.9-0.5-5.9c-0.5-2.4-0.4-4.9,0.1-7.4c0-0.2,0.1-0.4,0.1-0.6
					L188,17c0,0,0-0.1-0.1-0.1c-2.6,3.1-4,8.9-3.4,13.3C184.9,32,185.4,33.8,186,35.7 M189.6,21.2l0.1,4.8v1.6h0.1
					c1.4-1.8,3-3.4,4.7-4.9l4-3.4c1.5-1.7,2.6-3.8,3.1-6V13c-0.1,0-0.1,0-0.2,0l-0.5,0.7c-0.9,1.3-2.1,2.3-3.5,3.1
					c-2,1.1-3.9,2.6-5.3,4.4c-0.1,0.1-0.2,0.1-0.1-0.1l0.9-3.3c0.5-1.9,0.7-4.4,1.4-6.1c0.5-1,1.1-2,1.9-2.8c0-0.1,0-0.1,0-0.2
					c-0.2,0-0.3,0.1-0.5,0.2c-2.4,1.2-4.2,3.2-5.2,5.7c-0.6,1.5-0.9,3.1-0.9,4.8L189.6,21.2 M194.8,16.5
					C194.8,16.6,194.8,16.6,194.8,16.5l4.3-3.5c1.3-1.3,2.5-2.7,3.4-4.2c1-1.6,2.3-3,3.6-4.3l0.3-0.3c0-0.1,0-0.1,0-0.2
					c-2.5,0.6-4.9,1.7-6.9,3.3C196.1,10.1,194.9,15.8,194.8,16.5 M234.7,47.4c0.3-0.4-0.4-0.7-0.6,0S234.4,47.8,234.7,47.4
					 M242.3,29.9c-0.3-0.1-1.4,1.2-1.2,1.4C241.6,30.9,242,30.5,242.3,29.9 M242.5,29.7c0.2,0.1,0.9-0.3,0.8-0.4s-1-0.5-1-0.3
					C242.3,29.4,242.4,29.6,242.5,29.7 M255.8,42c0.4-0.1,0.3-0.7,0-0.7s-0.7,0.5-0.6,0.5S255.7,42.1,255.8,42 M251,28.8
					c-0.3,0-0.4,0.3-0.1,0.5c0.2,0.1,0.5,0,0.7-0.1c0.2-0.1,0.4-0.3,0.4-0.6s-0.4-0.7-0.2-0.9s0.5,0.1,0.7,0s0.3-0.3,0.3-0.5
					s-0.1-0.8-0.5-0.8s-0.8,0.8-0.8,0.8c-0.1,0.2-0.1,0.5,0,0.7C251.6,28.2,251.6,28.7,251,28.8"/>
				<path class="st0" d="M257.5,28.8c0,0.2,0.5,1.5,0.6,1.8s0.2,1.4,0.4,1.3s0.1-0.7,0.1-0.9c-0.1-0.7-0.3-1.4-0.5-2.1
					c-0.1-0.4-0.7-1.8-1-1.8s0.3,1,0.4,1.3C257.6,28.5,257.6,28.7,257.5,28.8 M254.1,12c0.3,0.1,0.3-0.5-0.2-0.9s-1.3-0.2-1.1,0
					C253.2,11.4,253.6,11.8,254.1,12 M239.2,7.7c-0.6-0.4-0.1-1-0.6-1.4c-0.6-0.2-1.2-0.1-1.6,0.3c-0.4,0.6,0.6,0.4,0.9,0.5
					s1.3,0.9,1.4,0.8S239.3,7.7,239.2,7.7 M243.1,5.7c-0.9-0.4-4.2-0.4-4.1,0.5s1.9,0,2.4,0S243.9,6.1,243.1,5.7 M234.1,44
					c-0.1-0.1-0.5,0.1-0.6-0.1s-0.3-0.1-0.2,0s-0.1,0.3,0.1,0.5c0.2,0.2,0.6,0.2,0.8,0C234.3,44.3,234.3,44.1,234.1,44 M232.2,37.4
					c0.3,0,0.3-0.2,0.4-0.2s0,0.2,0.3,0.2s0.6-0.7-0.3-0.7C231.9,36.7,232,37.4,232.2,37.4 M233.4,38.1c-0.5-0.1-0.4,0.2-0.8,0.2
					c-0.6,0.1-0.1-0.4-0.3-0.6c-0.1-0.1-0.4,0.4-0.5,0.7c0,0.1,0,0.6,0.2,0.6l1.9,0.2C234.3,39.4,233.9,38.3,233.4,38.1 M227.3,44.7
					c0.2,0,0.3-0.6,0.2-0.9s-0.6-0.1-0.7,0.1S227.1,44.7,227.3,44.7 M219.4,44.6c0-0.3,0-1-0.2-1.2s-0.1,0.1-0.3,0.1
					s-0.1-0.4-0.2-0.4s0.1,0.6,0.2,0.9S219.3,45,219.4,44.6 M219.2,42.8c0.2-0.6,0.2-1.2,0.3-1.8c0-0.5-0.3-0.9-0.4-0.9s0,0.3,0,0.8
					c0,0.5-0.1,1-0.3,1.5C218.8,42.6,219,43.1,219.2,42.8"/>
				<path class="st0" d="M209,65.1c14.8,14.7,38.7,14.5,53.4-0.3c14.6-14.7,14.6-38.4,0-53.1C247.6-3,223.7-2.8,209,12
					C194.4,26.7,194.4,50.4,209,65.1 M199.6,39.2h5.8c0.1,2.9,0.6,5.8,1.5,8.6c-0.3-0.1-0.6-0.2-0.9-0.3c-0.4-0.2-0.7,0.1-0.8,0.1
					c-0.4,0-0.9-0.3-0.9,0s0.4,0.1,0.4,0.3s-1,0.2-1.1-0.2s-0.3-0.8-0.3-0.3s-0.5,0.4-0.7,0.5c-0.1,0.1-0.2,0.3-0.2,0.5
					c0,0.2-0.5,0-0.5,0.4s0.3,0.4,0.4,0.7s0.4,0.5,0.2,0.6s-0.1-0.1-0.3,0s0.9,3.1,1.1,3s-0.3-1-0.3-1.4s0.1-0.5,0.4-0.7
					s1.1,1.2,1.4,1s-0.1-0.4,0.2-0.5s1.2,1.3,1.5,0.9c0.2-0.3,0.4,0.2,0.4,0.3c0.3,0.5,0.8,0.5,1.1,1.1s1,1.7,1.5,1.7
					s0.2-0.5,0.4-0.5s0.4,0.6,0.7,1.1c0.2,0.3,0.5,0.5,0.9,0.6c0.7,0.9,1.5,1.8,2.3,2.7l-4.1,4.1C203.3,56.9,199.8,48.3,199.6,39.2
					 M232.5,30.9l-0.4,0.2c-0.5,0.3-1.1,0.6-1.5,1l-4.1-4.1c2.3-2.1,5.3-3.3,8.5-3.5v5.8c-0.7,0.1-1.4,0.2-2.1,0.5
					c0.2-0.4,0.6-0.8,0.6-0.8S232.7,30.4,232.5,30.9 M229.4,40.3v0.2c0,0,0,0.1,0,0.1c0-0.2-0.1-0.3-0.2-0.5
					c-0.1-0.1-0.2-0.2-0.3-0.2c-0.1,0-0.2,0-0.3,0l-0.2,0l-0.2,0.1h-1.4c-0.2,0-0.3,0-0.3-0.1c-0.1-0.4,0.5-0.1,0.9-1.3
					c0-0.1,0.1-0.3,0.2-0.4l0.1-0.2l0.1-0.1l0.1-0.1c0.1-0.2,0.4-0.2,0.6-0.2h0.4l0,0l0.1,0.1l0.1,0.1c0.1,0.1,0.2,0.1,0.2,0.2
					c0.2,0.1,0.3,0.2,0.4,0.3l0.1,0.1c0,0,0,0.1,0.1,0.1c0.1,0.1,0.1,0.1,0.2,0.1h0.4c0.2-0.1,0.2,0,0.3,0c0,0,0,0.1,0,0.1
					c0,0.1,0,0.1-0.1,0.2c0,0.1-0.1,0.1-0.1,0.2c-0.1,0.1-0.2,0.2-0.4,0.2c-0.2,0-0.3-0.1-0.5-0.1c-0.1,0-0.2,0-0.2,0.1v0.1
					c0,0,0,0,0,0.1v0.1c0,0,0,0.1,0,0.1v0.1 M218.4,49.3c-0.2-0.6-0.2-1.1-0.1-1.7c0-0.6-0.2-1.2-0.5-1.7c-0.2-0.4-0.2-0.8-0.2-1.2
					c0-0.7-0.6-0.5-0.6-0.7s0.4,0,0.5-0.2s-0.6-1-1.1-1.2s-0.3-0.5-0.2-0.8c0-0.3,0-0.6-0.2-0.8c-0.1-0.4,0-1.1,0.5-1.1
					c0.2,0,0.6,0.2,0.8,0s0.1-0.8,0.1-1.3h2.7c0,0.4,0,0.9,0.1,1.3c-0.2,0.1-0.3,0.3-0.2,0.4c0.1,0.1,0.2,0.2,0.3,0.1
					c0.5,2.9,1.8,5.6,3.8,7.8l-4.1,4.6c-0.3-0.3-0.6-0.7-0.9-1.1c0-0.1,0-0.2,0-0.3c0-0.7-0.4-1.1-0.7-1.6 M214.8,43
					c-0.3-1.2-0.4-2.5-0.5-3.7h2.4c-0.2,0.3-0.7,0.6-0.8,0.9s-0.6,1.3-0.3,1.7C216.5,42.7,215.4,43.2,214.8,43 M215.3,57.7l-0.5,0.5
					l-0.7-0.7h0.1C214.4,57.3,214.8,57.5,215.3,57.7 M221.4,32.2c-0.1,0-0.1,0.1-0.2,0.1c-0.3,0.3-1,0.2-1,0.5s2.1-0.7,2.2-0.5
					s-0.9,0.5-1.5,0.7s-0.8,0.8-1.8,0.8c-0.4,0-0.7,0.4-0.9,0.7c-0.3,0.4-0.5,0.8-0.6,1.2c0,0.6-0.2,1.2-0.5,1.8h-2.9
					c0.2-5.1,2.2-10,5.7-13.8l4.1,4.1C223,29.2,222.1,30.7,221.4,32.2 M225.2,29.2l3.6,3.6c-0.1,0-0.2,0-0.4,0
					c-0.4,0-0.4-0.3-0.7-0.3c-0.6,0.1-0.7,0.3-0.8,0.2c-0.4-0.4-0.9-0.7-1.4-1c-0.7-0.2-1.4-0.2-2,0.1l-0.2,0.1
					C223.9,30.9,224.5,30,225.2,29.2 M220.3,36.5l-0.1,1.2h-2.1c-0.1-0.3,0-0.6,0.2-0.9c0.3-0.4,0.7-0.6,1.2-0.5
					C219.7,36.3,220,36.4,220.3,36.5 M222,41.1l0.3,0.3c0.2,0.2,0.4,0.4,0.6,0.3s0.7,0,0.7,0c0.3,0.1,0.5,0.3,0.7,0.5
					c0.2,0.3,0.6,0.1,0.9,0.3s0.6,0.4,0.2,0.6s0.4,0.6,0.5,0.5s0.2-0.2,0.1-0.5c0-0.1,0.2-0.5,0.5-0.4s1.2,1.2,1.5,0.8
					s0.1-0.9,0.2-1c0-0.1,0.1-0.2,0.2-0.2c0.2,0.5,0.5,0.9,0.9,1.3l-4.1,4.1C223.6,45.9,222.5,43.6,222,41.1 M225.3,26.9l-4.1-4.1
					c3.7-3.5,8.6-5.5,13.7-5.7v5.8C231.3,23.1,227.9,24.5,225.3,26.9 M220,21.6l-4.1-4.1c5.1-4.9,11.9-7.7,18.9-7.9v5.8
					C229.3,15.6,224,17.8,220,21.6 M218.9,22.8c-3.8,4-6,9.3-6.2,14.8H207c0.2-7.1,3-13.8,7.9-18.9L218.9,22.8z M212.7,39.2
					c0,1,0.1,2.1,0.3,3.1c-0.1,0-0.1-0.3-0.4-0.2s-1.4,1.9-1.9,2.7s0.2,2.2-0.4,2.7c-0.5,0.2-1.1,0.3-1.7,0.3h-0.1
					c-0.9-2.8-1.4-5.7-1.5-8.6H212.7z M234.8,74.5c-9-0.2-17.7-3.7-24.2-10l4.1-4.1c5.4,5.2,12.6,8.1,20.1,8.3V74.5z M234.8,67.1
					c-7.1-0.2-13.8-3-18.9-7.8l0.6-0.7c0.1,0.1,0.3,0.2,0.5,0.3c0.4,0.2,0.9,0.2,1.4,0.2c0.4-0.1,1.1-0.8,1.6-0.8s1.3,0.2,1.8-0.1
					s-0.3-1.3-0.6-1.8c-0.1-0.1-0.1-0.2-0.2-0.3c3.9,3.3,8.8,5.1,13.9,5.3L234.8,67.1z M234.8,59.7c-5.1-0.2-10-2.2-13.7-5.7
					l4.1-4.1c1.9,1.7,4.2,2.9,6.8,3.5c-0.9,0.4-1.3,1-1.2,1.5s-0.6,0.8-0.6,1.4s0.8,1,0.9,1.6c0.1,0.3,0.8,0.7,1.4,1.2
					c0.8,0.2,1.6,0.3,2.3,0.2L234.8,59.7z M234.6,51.8c-0.3-0.2-0.5,0.2-0.9,0.4c-2.7-0.4-5.3-1.6-7.4-3.4l4.1-4.1
					c1.2,1,2.8,1.7,4.4,1.8c0,0.2,0.1,0.4,0.2,0.8c0,0.2-0.3,0.6-0.2,0.8s1,0,1.1-0.3s-0.2-0.5-0.4-0.8c-0.1-0.2-0.1-0.3-0.2-0.5
					h0.4c0.3,0,0.6,0,0.9,0c0.1,0,0.2-0.1,0.2-0.2c0-0.1,0.1-0.2,0.1-0.3l0.1-0.2c0,0,0.1,0,0.1,0.1c0.1,0.2,0.3,0.8,0.6,0.7
					s0.4-1,0.2-1.2c-0.2-0.3-0.2-0.6-0.1-0.9c0-0.1,0.1-0.7,0.3-0.6s0,0.6,0,0.7c0,0.3,0.2,0.7,0.5,0.5c0.2-0.1,0.4-0.4,0.6-0.3
					s-0.5,0.3-0.6,0.5s0.3,0.3,0.2,0.4s-0.2,0-0.3,0.1s0.2,0.7,0,0.8l-1.1,0.4c-0.2,0.1-0.4-0.1-0.3-0.2s-0.1-0.5-0.2-0.5
					s-0.2,0.1-0.2,0.3s0.2,0.5,0.2,0.6s-0.3,0.2-0.5,0.3c-0.2,0.3-0.5,0.6-0.8,0.8c-0.3,0.2-0.9,0.2-0.9,0.4s0.3,0.2,0.4,0.3
					c0.2,0.3,0.4,0.7-0.1,0.9s-0.9-0.3-1.1-0.2s-0.4,0.6-0.4,1.2s1.1,0.8,1.6,0.5c0.4-0.2,0.4-0.8,0.7-1s0.4-0.6,0.7-0.5
					s0.3-0.3,0.7-0.3s0.4,0.3,0.9,0.4c0.8,0.2,0.8,0.8,0.9,0.5s0.2-0.5-0.4-0.7s-0.9-0.9-0.4-0.6s1.1,0.3,1.2,0.6s0.7,0.2,0.8,0.5
					s0.5,0,0.2-0.3s-0.2-0.4,0-0.6s0.3,0.1,0.6-0.3s-0.1-0.3-0.2-0.5s0-1.3,0.4-1.1s0.7-0.1,0.6-0.2s0.1-0.7,0.2-0.7s0,0.4,0.1,0.5
					s1.1-0.3,1.2,0.1s-0.7,0.7-0.9,0.7c-0.4,0-0.7,0.4-1,0.8s-0.6,0.5-0.4,0.9s0.6,0.3,1,0.1s0.7-0.5,0.9-0.6c0.4-0.2,0.7,1,0.5,1.2
					s-0.6,0.3-0.8,0.5c-0.6,0.3-1.2,0.6-1.9,0.6c-0.4,0.1-0.4,0.2-0.5,0.6s-1.9,0.1-2.3,0.1s0.3-0.9-0.3-0.8s-1.2,0.2-1.8,0.3
					c-0.4,0.1-1,0.6-1.5,0.2 M239.9,61c0.5,0.2,1,0.5,1.3,1c0.3,0.5,0.4,0.7,0.1,1.1c-0.5,0.9-0.3,1.4,0.7,1.8
					c0.6,0.2,0.8,0.8,1.2,1.2c-2.2,0.6-4.5,0.9-6.8,1v-5.8C237.6,61.3,238.8,61.2,239.9,61 M236.5,59.8V59c1.3-0.2,1,0.6,1.9,0.3
					c0.3-0.1,0.6,0,0.8,0.1C238.4,59.6,237.4,59.7,236.5,59.8 M236.5,74.5v-5.8c3-0.1,6-0.6,8.8-1.6c0.1,0.1,0.2,0.1,0.3,0.1
					c0.4,0,0.7-0.1,1.1-0.3c1-0.4,1.9-0.9,2.7-1.5c2.6-1.3,5-3,7.1-5l4.1,4.1C254.2,70.9,245.5,74.4,236.5,74.5 M252.6,22.7l1.4-1.4
					c0.3,0.4,0.8,0.7,1.4,0.7c0.4,0,0.8,0.3,0.8,0.8c0.1,0.5,0.6,0.7,1.1,0.8s0.8,0.6,1.2,0.7s1.7,1.8,2.1,2.4
					c0.3,0.3,0.7,0.8,1,0.4c0.1-0.1,0.3-0.3,0.5-0.4c1.5,3.4,2.3,7.1,2.4,10.8h-5.8c0-1.3-0.2-2.6-0.5-3.8c0.2-0.4,0.3-0.8,0.3-1.3
					c0-0.4-0.4-0.6-0.7-0.3c-0.2-0.8-0.5-1.5-0.8-2.3c-0.1-0.4-0.2-0.9-0.3-1.3c0-0.1-0.2-0.2-0.4-0.4c-0.2-0.3-0.4-0.7-0.5-1
					c0.3-0.2,0.4-0.7,0-0.6c-0.6,0.1-0.2-0.3-0.4-0.5s-0.2,0-0.3,0.1c-0.8-1.2-1.6-2.3-2.6-3.3C252.5,22.9,252.5,22.8,252.6,22.7
					C252.5,22.8,252.5,22.8,252.6,22.7 M256,56.4c-0.2-0.4-0.3-0.9-0.5-1.3c-0.1-0.4-0.9-0.4-0.9-0.2c0,0.4,0,0.8-0.1,1.2v0.1
					l-2.1-2.1c3.8-4,6-9.3,6.2-14.8h5.8c-0.2,7.1-3,13.8-7.9,18.9l-0.3-0.3C256.3,57.4,256.2,56.9,256,56.4 M251.3,60.4l1.1-1.9
					c0.2-0.5-0.8-1.3-1.4-1.5s-0.6-0.5-0.6-1l0.9-0.8l4.1,4.1c-1.3,1.3-2.8,2.4-4.4,3.4c-0.1-0.2,0.6-0.9,0.8-1.2
					S251.1,60.8,251.3,60.4 M253.8,36.7c-0.5-0.7,0.2-0.7,0.9-1.1c0.4-0.2,0.9,0.1,0.9-0.1s0.2-0.6,0.4-0.7c0.2-0.1,0.4-0.3,0.6-0.5
					c0,0.2,0.1,0.4,0.1,0.6c-0.2,0.3-0.3,0.7-0.3,1.1c0,0.3,0,0.7,0.3,0l0.1-0.2l0.1,1.8h-4.3l0.1-0.1C253,37,254.1,37.1,253.8,36.7
					 M254.6,28.5l-0.1,0.1c-0.1,0.1-0.6-0.6-0.6-0.1s0.2,0.8,0.6,0.9s0.2,0.4,0.5,0.4c0.1,0,0.3,0.1,0.4,0.2
					c0.5,1.1,0.8,2.2,1.1,3.3c-0.2,0.1-0.3,0.2-0.4,0.3c-0.2,0.2-0.1,0.6-0.3,0.9c-0.4,0.5-0.4,0.8-1.2,0.5c-0.5-0.2-0.1-0.8,0-1.3
					s0.3-0.4,0.3-0.6s-1-1.4-1.5-1c-0.5,0.4-0.4,0.8-0.8,1.2c-0.2,0.2-0.4,0.2-0.7,0s-0.4-0.4-0.3-0.6s-0.7-1.1-1-1.5
					c-0.4-0.5-1-0.7-1.6-0.8c-0.5-0.9-1.2-1.7-1.9-2.5l4.1-4.1C252.6,25.3,253.7,26.9,254.6,28.5 M247.7,31.3
					c-0.1,0.1-0.2,0.2-0.2,0.3c-0.1,0.2-0.6-0.2-0.7-0.1s0.7,1.1-0.1,0.8s-0.3-0.3-0.3-0.6s-0.7-0.5-0.3-0.7s0-0.5,0.4-0.6
					s0.3-0.5-0.2-0.6s-0.4,1-0.7,0.9s-0.6,0-0.9-0.1l1.4-1.4c0.2,0.1,0.3,0.1,0.5,0.1C246.8,30.1,247.3,30.7,247.7,31.3 M246.1,51.4
					c0.6,0.1,1.3,0.2,1.9,0.4c0.4,0.2,0.7,0.6,1,0.1c0.6-0.9,1-1.9,1.2-3c0.2-1.5-0.1-2-0.3-2s-0.6,0.4-1,0.4
					c-0.2,0-0.2,0.4-0.2,0.7s-0.4,0.6-0.5,0.4s-0.4-0.2-0.2,0.1s-0.8,0.1-1.2-0.1c-0.6-0.3,0.7-0.3,1.3-0.8c0.5-0.4,1-0.9,1.4-1.4
					c0.3-0.5,0.3-1.1,0.8-1.5s1.3-0.3,1.4-0.8s0.2-0.5,0.5-0.4s3.1-0.1,3-1c0-0.4-0.6-0.9-1.2-1c-0.4,0-0.5-0.8-0.7-1.2
					c-0.2-0.4-0.4-0.8-0.7-1.1h4.5c-0.2,5.1-2.2,10-5.7,13.7l-0.1-0.1c0-0.1,0-0.2,0-0.4c0.1-0.8-0.5-2.1-0.7-1.9s-0.1,0.2-0.6,1.1
					c-0.2,0.3-0.5,0.8-0.9,0.8s-0.4-0.3-1-0.1c-0.5,0.1-1.1,0.1-1.6,0c-0.9-0.3-1.8-0.8-2.6-1.3c0.1-0.1,0.4,0.1,0.4-0.2
					S245.9,51.3,246.1,51.4 M261.8,63.4l-4.1-4.1c5.1-5.4,8.1-12.5,8.3-20h5.8C271.6,48.3,268,56.9,261.8,63.4 M271.8,37.6H266
					c-0.1-4.2-1.1-8.4-2.9-12.3l0.1-0.1c0.5-0.4-1.9-3.3-2.2-3.7l-1.2-1.2c-0.8-0.8-1.6-1.7-2.2-2.6l4.3-4.3
					C268,19.9,271.6,28.6,271.8,37.6 M236.5,2.3c9,0.2,17.7,3.7,24.2,10l-4,4c-0.2-0.1-0.4-0.2-0.3-0.4c0.2-0.3-0.3-0.3-0.4-1.1
					c-0.2-0.8-0.8-1.5-1.5-1.9c-0.5-0.3-0.8-0.7-1.3-0.9s-1.5-0.8-2-0.6c-0.3,0.1-0.7,0.2-1,0.2c-4.2-2.3-8.8-3.5-13.6-3.6
					L236.5,2.3z M236.5,9.7c4.2,0.1,8.4,1.2,12.2,3.1c0.1,0.6,0.4,1.2,0.8,1.8c0.2,0.5,0.5,0.9,0.8,1.3c0.3,0.3,0.1,0.9,0.2,1.4
					c0.1,0.2,0.2,0.4,0.3,0.6s-0.1,0.6,0,0.8s0.4,0.1,0.7-0.1s0.5-0.6,0.9-0.5s0.9,0.8,1.2,1.4l-1.9,1.9c-0.2-0.4-0.4-0.8-0.3-0.9
					s0.3,0.1,0.4,0.1c0.4,0-0.3-0.3-0.3-0.4c-0.3-0.3-0.3-0.7-0.7-1s-1-0.1-1.2-0.4c-0.4-0.7-0.9-1.3-1.6-1.8
					c-0.1,0,0.8,1.1,0.5,1.3s-1.4-0.8-1.5-0.6s1.2,0.7,1.6,1.1c0.2,0.2,0.6,0.8,1,1.3c-3.8-2.9-8.3-4.5-13.1-4.7L236.5,9.7z
					 M236.5,17.1c5.1,0.2,10,2.2,13.7,5.7l-4.1,4.1c-2.7-2.4-6-3.8-9.6-4V17.1z M236.5,24.5c3.1,0.2,6.1,1.4,8.5,3.5l-0.2,0.2
					l-0.2-0.1c-0.5-0.2-1.5,0.8-1.3,0.9s0.6-0.4,0.8-0.3h0.1l-1.8,1.8c-0.5,0.2-1,0.6-1,0.9c0,0,0,0,0,0.1l-0.6,0.5l-0.3-0.2
					c-0.5-0.4-1-0.7-1.6-0.9c0.3-0.2,0.4-0.5,0.4-0.9c0-0.6-0.2-0.4-0.5-0.1s-0.6,0.4-0.8,0.7c-0.5-0.2-1.1-0.3-1.6-0.3L236.5,24.5z
					 M235.8,31.9c0,0.1,0.1,0.3-0.1,0.5s-0.8-0.5-0.9,0.1s0.4,0.3,0.4,0.4c0.3,0.4,0.7,0.6,1.2,0.7c0.4,0,1,0,1,0.4
					c0,0.2,0.5,0.2,0.6,0.4c0,0.3,0.3,0.8,0.5,0.7c0.2-0.1,0.5,0.1,0.6,0.3c0,0.1,0,0.3-0.1,0.4c-0.3,0.3,0.3,0.2,0.4,0.8
					s-0.5,0.2-0.6,0.6c-0.2,0.3-0.4,0.5-0.6,0.7c-0.1,0.1,0.1,0.3,0.2,0.2s0.3-0.4,0.6-0.4s0.6,1.1,0.9,1.2s0.2,0.5,0.3,0.6
					s-0.5,0-0.4,0.2s0.7,0.3,0.7,0.6c-0.1,0.3-0.3,0.6-0.6,0.6c-0.3,0-0.8-0.7-0.8-0.5s0.2,0.8,0.5,0.7s1-0.3,0.7,0.1s-0.2,1-0.4,1
					s-0.3,0-0.1,0.3c0.1,0.3,0,0.6-0.2,0.9c-0.2,0.2-0.6,0-0.7-0.1s0.6-0.1,0.6-0.4s-0.3-0.4-0.9-0.2c-0.3,0.1-0.4-0.1-0.6-0.1
					s-0.8,0.7-0.8,0.8c-0.1,0.2-0.1,0.4-0.1,0.6c0,0.3-0.1,0.7-0.3,1c-0.3,0.1-0.7,0.1-1,0.1c-1.6,0-3.1-0.6-4.3-1.6
					c0.2-0.1,0.5-0.2,0.8-0.2c0.3,0.1,0.4-0.1,0.6-0.2s0.7,0.2,1,0s1-1.5,0.9-1.8s0.7-0.7,0.6-0.9s-0.2,0.1-0.2,0s0.2-0.1,0-0.5
					s-0.5-0.2-0.6-0.2c-0.4-0.2-0.8-0.3-0.9-0.2s-0.4-0.2-0.5-0.1c-0.1,0-0.3,0.1-0.3,0.3c-0.1,0.2,0.1,0.4,0.1,0.6
					c-0.1,0.4-0.7,0.7-0.7,1s-0.3,0.1-0.4,0.2s0,0.3-0.2,0.3s-0.5,0.5-0.7,0.9c-0.3-0.4-0.6-0.8-0.9-1.3c0.2-0.1,0.4-0.2,0.6-0.1
					s1.5-1.9,1.3-2.5c-0.2-0.4-0.5-0.2-0.8-0.1s-0.4-0.2-0.2-0.3s1.4-0.1,0.7-0.5c-0.3-0.2-1.1-0.2-1-0.5s0.4,0,0.6,0
					c0.5,0.2,0.8-0.8,1.1-0.8c0.5,0,0.3-1-0.1-0.7s-0.7,0.2-0.9,0.5s-0.7,0.7-0.7,0.3c0-0.2,1.1-0.8,1.4-1.1
					c0.2-0.2,0.4-0.5,0.4-0.8c0.1-0.3,1.5-0.5,1.8-0.7c0.2-0.2,0.4-0.5,0.4-0.8c0-0.3-0.4-0.2-0.5-0.4s0.5,0,0.5-0.3s-0.5,0-0.7-0.2
					c-0.1-0.1,0-0.1,0.1-0.2c0.6-0.2,1.3-0.3,2-0.3h0.1 M235.1,2.4v5.7c-7.5,0.2-14.6,3.2-20.1,8.3l-4.1-4.1
					C217.4,6.1,226,2.5,235.1,2.4 M209.5,13.5l4.1,4.1c-5.2,5.4-8.1,12.6-8.3,20.1h-5.8C199.7,28.6,203.3,20,209.5,13.5"/>
			</g>
		</g>
	</g>
</g>
</svg>
